<svg width="25" height="25" viewBox="0 0 25 25" fill="none" xmlns="http://www.w3.org/2000/svg">
<path d="M19.6333 8.85419L17.9479 6.15784L16.0942 8.85419H19.6333Z" fill="#45263D"/>
<path d="M9.27234 12.0928L7.27286 9.00269L5.09161 12.0928H9.27234V12.0928Z" fill="#45263D"/>
<path fill-rule="evenodd" clip-rule="evenodd" d="M25 0H0V25H25V0ZM16.7396 6.0776L16.4979 6.14219L17.8339 4.70521C17.9436 4.67518 18.0602 4.68212 18.1656 4.72495C18.2711 4.76778 18.3595 4.84412 18.4172 4.94219L20.8609 8.85417H21.875C21.875 11.1552 20.126 13.0208 17.9687 13.0208C15.8115 13.0208 14.0625 11.1552 14.0625 8.85417H14.8302L16.7391 6.0776H16.7396ZM7.09375 16.2594C9.25104 16.2594 11 14.3937 11 12.0927H10.513L8.11719 8.39062L11.1599 7.57448C11.3471 7.88595 11.6367 8.12271 11.9792 8.24427V19.7917H10.4167V20.8333H7.29167V21.875H17.7083V20.8333H14.5833V19.7917H13.0208V8.24479C13.3216 8.13843 13.5826 7.94259 13.7688 7.68358C13.955 7.42457 14.0575 7.11479 14.0625 6.79583L16.4958 6.14271L17.8312 4.70625L13.7297 5.80625C13.5464 5.57288 13.3006 5.39641 13.0208 5.2974V3.125H11.9792V5.29687C11.7099 5.39239 11.4719 5.55982 11.291 5.781C11.1101 6.00218 10.9933 6.26867 10.9531 6.55156L7.15625 7.56979C7.03879 7.60154 6.93615 7.6734 6.86615 7.77292L3.81667 12.0927H3.1875C3.1875 14.3937 4.93646 16.2594 7.09375 16.2594V16.2594Z" fill="#45263D"/>
</svg>
